<svg width="16" height="17" viewBox="0 0 16 17" fill="none" xmlns="http://www.w3.org/2000/svg">
<g id="layers-three-01">
<path id="Icon" d="M1.33398 8.50037L7.76214 11.7144C7.84959 11.7582 7.89332 11.78 7.93919 11.7886C7.97981 11.7963 8.02149 11.7963 8.06212 11.7886C8.10798 11.78 8.15171 11.7582 8.23917 11.7144L14.6673 8.50037M1.33398 11.8337L7.76214 15.0478C7.84959 15.0915 7.89332 15.1134 7.93919 15.122C7.97981 15.1296 8.02149 15.1296 8.06212 15.122C8.10798 15.1134 8.15171 15.0915 8.23917 15.0478L14.6673 11.8337M1.33398 5.16704L7.76214 1.95296C7.84959 1.90923 7.89332 1.88737 7.93919 1.87876C7.97981 1.87114 8.02149 1.87114 8.06212 1.87876C8.10798 1.88737 8.15171 1.90923 8.23917 1.95296L14.6673 5.16704L8.23917 8.38111C8.15171 8.42484 8.10798 8.4467 8.06212 8.45531C8.02149 8.46293 7.97981 8.46293 7.93919 8.45531C7.89332 8.4467 7.84959 8.42484 7.76214 8.38111L1.33398 5.16704Z" stroke="#3B8D6C" stroke-width="1.33333" stroke-linecap="round" stroke-linejoin="round"/>
</g>
</svg>
