<svg width="16" height="17" viewBox="0 0 16 17" fill="none" xmlns="http://www.w3.org/2000/svg">
<g id="layers_two_01">
<path id="Icon" d="M1.33398 10.1664L7.76214 13.3805C7.84959 13.4242 7.89332 13.4461 7.93919 13.4547C7.97981 13.4623 8.02149 13.4623 8.06212 13.4547C8.10798 13.4461 8.15171 13.4242 8.23917 13.3805L14.6673 10.1664M1.33398 6.83305L7.76214 3.61897C7.84959 3.57525 7.89332 3.55338 7.93919 3.54478C7.97981 3.53716 8.02149 3.53716 8.06212 3.54478C8.10798 3.55338 8.15171 3.57525 8.23917 3.61897L14.6673 6.83305L8.23917 10.0471C8.15171 10.0909 8.10798 10.1127 8.06212 10.1213C8.02149 10.1289 7.97981 10.1289 7.93919 10.1213C7.89332 10.1127 7.84959 10.0909 7.76214 10.0471L1.33398 6.83305Z" stroke="#3B8D6C" stroke-width="1.33333" stroke-linecap="round" stroke-linejoin="round"/>
</g>
</svg>
