<svg width="20" height="20" viewBox="0 0 20 20" fill="none" xmlns="http://www.w3.org/2000/svg">
<g id="file-04">
<path id="Icon" d="M11.6654 1.89118V5.33329C11.6654 5.8 11.6654 6.03336 11.7562 6.21162C11.8361 6.36842 11.9636 6.4959 12.1204 6.5758C12.2986 6.66663 12.532 6.66663 12.9987 6.66663H16.4408M16.6654 8.32348V14.3333C16.6654 15.7334 16.6654 16.4335 16.3929 16.9683C16.1532 17.4387 15.7707 17.8211 15.3003 18.0608C14.7656 18.3333 14.0655 18.3333 12.6654 18.3333H7.33203C5.9319 18.3333 5.23183 18.3333 4.69705 18.0608C4.22665 17.8211 3.8442 17.4387 3.60451 16.9683C3.33203 16.4335 3.33203 15.7334 3.33203 14.3333V5.66663C3.33203 4.26649 3.33203 3.56643 3.60451 3.03165C3.8442 2.56124 4.22665 2.17879 4.69705 1.93911C5.23183 1.66663 5.9319 1.66663 7.33203 1.66663H10.0085C10.62 1.66663 10.9257 1.66663 11.2134 1.7357C11.4685 1.79694 11.7124 1.89795 11.9361 2.03503C12.1884 2.18963 12.4046 2.40582 12.8369 2.8382L15.4938 5.49505C15.9262 5.92743 16.1424 6.14362 16.297 6.39591C16.434 6.61959 16.535 6.86346 16.5963 7.11855C16.6654 7.40627 16.6654 7.712 16.6654 8.32348Z" stroke="black" stroke-width="2" stroke-linecap="round" stroke-linejoin="round"/>
</g>
</svg>
